<svg width="41" height="54" viewBox="0 0 41 54" fill="none" xmlns="http://www.w3.org/2000/svg">
<circle cx="20.5" cy="20.5" r="20" fill="#1B7165" stroke="#1B7165"/>
<circle cx="20.5" cy="20.5" r="16" fill="#E5F0EA" stroke="#E5F0EA"/>
<rect x="18.5" y="37.5" width="4" height="16" fill="#1B7165" stroke="#1B7165"/>
<path d="M8.89453 27C8.65365 27 8.47786 26.9447 8.36719 26.834C8.25651 26.7233 8.20117 26.5475 8.20117 26.3066V15.5352C8.20117 15.2943 8.25651 15.1217 8.36719 15.0176C8.47786 14.9069 8.65365 14.8516 8.89453 14.8516H12.332C13.7383 14.8516 14.7734 15.125 15.4375 15.6719C16.1016 16.2122 16.4336 16.9609 16.4336 17.918C16.4336 18.4909 16.2546 19.0182 15.8965 19.5C15.5384 19.9818 15.0892 20.3333 14.5488 20.5547L14.5684 20.623C15.0241 20.7142 15.4277 20.8997 15.7793 21.1797C16.1374 21.4596 16.4141 21.8014 16.6094 22.2051C16.8112 22.6087 16.9121 23.0319 16.9121 23.4746C16.9121 24.6139 16.5508 25.4863 15.8281 26.0918C15.1055 26.6973 14.0215 27 12.5762 27H8.89453ZM12.0684 19.6855C12.5762 19.6855 12.9701 19.5651 13.25 19.3242C13.5365 19.0768 13.6797 18.7643 13.6797 18.3867C13.6797 17.5273 13.1523 17.0977 12.0977 17.0977H10.877V19.6855H12.0684ZM12.5762 24.7246C13.0775 24.7246 13.4681 24.6042 13.748 24.3633C14.028 24.1159 14.168 23.7676 14.168 23.3184C14.168 22.8757 14.0052 22.5404 13.6797 22.3125C13.3607 22.0846 12.8984 21.9707 12.293 21.9707H10.877V24.7246H12.5762ZM19.4316 27.0488C19.0801 27.0488 18.8164 27 18.6406 26.9023C18.4714 26.8047 18.3867 26.6647 18.3867 26.4824V15.3691C18.3867 14.985 18.735 14.793 19.4316 14.793H20.0371C20.3952 14.793 20.6556 14.8418 20.8184 14.9395C20.9876 15.0371 21.0723 15.1803 21.0723 15.3691V26.4824C21.0723 26.86 20.7272 27.0488 20.0371 27.0488H19.4316ZM24.0898 27C23.849 27 23.6732 26.9447 23.5625 26.834C23.4518 26.7233 23.3965 26.5475 23.3965 26.3066V15.5352C23.3965 15.2943 23.4518 15.1217 23.5625 15.0176C23.6732 14.9069 23.849 14.8516 24.0898 14.8516H27.9766C29.168 14.8516 30.1771 15.0859 31.0039 15.5547C31.8372 16.0169 32.4655 16.7005 32.8887 17.6055C33.3184 18.5104 33.5332 19.6139 33.5332 20.916C33.5332 22.2246 33.3184 23.3314 32.8887 24.2363C32.4655 25.1413 31.8372 25.8281 31.0039 26.2969C30.1771 26.7656 29.168 27 27.9766 27H24.0898ZM27.9766 24.7246C28.901 24.7246 29.6009 24.4023 30.0762 23.7578C30.5514 23.1068 30.7891 22.1595 30.7891 20.916C30.7891 19.679 30.5514 18.7383 30.0762 18.0938C29.6009 17.4427 28.901 17.1172 27.9766 17.1172H26.0918V24.7246H27.9766Z" fill="#1B7165"/>
</svg>
